Coordinates
version=1
nRows=17
nColumns=40
inDegrees=yes

Units are S.I. units (second, meters, Newtons, ...)
Angles are in degrees.

endheader
time	pelvis_tilt	pelvis_list	pelvis_rotation	pelvis_tx	pelvis_ty	pelvis_tz	hip_flexion_r	hip_adduction_r	hip_rotation_r	knee_angle_r	knee_angle_r_beta	ankle_angle_r	subtalar_angle_r	mtp_angle_r	hip_flexion_l	hip_adduction_l	hip_rotation_l	knee_angle_l	knee_angle_l_beta	ankle_angle_l	subtalar_angle_l	mtp_angle_l	lumbar_extension	lumbar_bending	lumbar_rotation	arm_flex_r	arm_add_r	arm_rot_r	elbow_flex_r	pro_sup_r	wrist_flex_r	wrist_dev_r	arm_flex_l	arm_add_l	arm_rot_l	elbow_flex_l	pro_sup_l	wrist_flex_l	wrist_dev_l
     49.76842857	     -1.96027692	     -5.29456246	      5.47969924	      1.19650042	      0.91143923	      0.56404268	     15.99158330	      6.24242577	    -11.28546903	     30.37032456	     30.37032456	     17.53560768	    -14.24041555	     -0.53875389	     32.88006794	    -13.91964701	      7.86028640	     68.40891179	     68.40891179	      7.61093430	    -19.27250670	     15.84671710	    -11.06829386	      4.34113353	      1.82377744	     35.05629259	    -16.78403689	     -6.36349995	     51.93754028	     45.34697674	      0.00000000	      0.00000000	     -1.72378299	     -8.02595138	      8.04898929	     21.78652975	     45.13743900	      0.00000000	      0.00000000
     49.78935714	     -1.93652652	     -5.18132670	      6.30207227	      1.19434385	      0.91067704	      0.56405497	     16.01316104	      6.07638581	    -11.67501103	     30.71684357	     30.71684357	     17.92139661	    -14.77876013	     -0.12192702	     34.10266917	    -13.50847213	      8.00770552	     67.43372250	     67.43372250	      8.68587680	    -19.33057193	     17.23361346	    -11.23810161	      4.28303687	      1.84553800	     37.62770691	    -17.04278465	     -6.39314670	     54.47765872	     45.27584234	      0.00000000	      0.00000000	     -4.03940344	     -8.15675079	      8.46659263	     21.62290422	     44.99508332	      0.00000000	      0.00000000
     49.81028571	     -2.04307959	     -5.09847903	      7.12529997	      1.19206706	      0.91046983	      0.56372445	     15.97663601	      5.89925044	    -12.18762930	     30.67102801	     30.67102801	     18.01395516	    -15.09438728	     -0.02832264	     35.09017343	    -13.13430531	      7.98344626	     65.46359349	     65.46359349	      9.40079708	    -19.33940181	     17.31461651	    -11.17899047	      4.24066772	      2.61835761	     40.00646016	    -18.04883506	     -6.67990198	     55.45690374	     45.26706012	      0.00000000	      0.00000000	     -5.61501486	     -8.24157459	      8.49434079	     21.19020663	     44.95679847	      0.00000000	      0.00000000
     49.83121429	     -2.13632561	     -4.89587216	      8.01468153	      1.18960318	      0.91076182	      0.56291662	     15.81516480	      5.56639429	    -12.74095225	     30.47457915	     30.47457915	     18.28566897	    -15.23651964	      0.30373560	     35.76128855	    -12.52835365	      7.91845163	     62.75493455	     62.75493455	     10.09621041	    -19.32870193	     17.75004304	    -11.38838707	      4.11586374	      2.18776058	     42.62582333	    -17.96848386	     -6.51600036	     58.79951591	     45.16145213	      0.00000000	      0.00000000	     -7.86383719	     -8.40369799	      8.90227532	     21.71402882	     44.80374502	      0.00000000	      0.00000000
     49.85214286	     -2.40510408	     -4.72250334	      8.91504292	      1.18704051	      0.91159178	      0.56177755	     15.68373571	      5.20298741	    -13.43845543	     29.98154301	     29.98154301	     18.39758419	    -15.16226471	      0.98097591	     36.20389129	    -11.98057747	      7.64356270	     59.08927958	     59.08927958	      9.95605774	    -19.27120434	     16.67031976	    -11.28033035	      4.04655396	      2.89981780	     44.31038151	    -19.45648793	     -6.23511697	     62.55686630	     45.15832342	      0.00000000	      0.00000000	    -10.30095772	    -10.26797667	     18.14293248	     25.62935035	     43.27491266	      0.00000000	      0.00000000
     49.87307143	     -2.76585568	     -4.51614897	      9.82130484	      1.18441328	      0.91291004	      0.56028193	     15.42241198	      4.78105441	    -14.22907197	     29.07195429	     29.07195429	     18.16392804	    -14.94822802	      0.83470057	     36.37132316	    -11.30630266	      7.33995520	     54.72848592	     54.72848592	      9.47574817	    -19.15583258	     15.62570535	    -11.10809753	      3.90735061	      2.86469372	     46.65325078	    -19.83857865	     -6.30278600	     64.96540135	     45.10206964	      0.00000000	      0.00000000	    -11.85508445	    -10.42403161	     18.15894970	     26.20903592	     43.30660559	      0.00000000	      0.00000000
     49.89400000	     -3.16641993	     -4.30364766	     10.68360459	      1.18181670	      0.91464175	      0.55862229	     15.04602807	      4.38207796	    -14.98285674	     27.87124040	     27.87124040	     17.66225647	    -14.76360652	      0.28269568	     36.15184518	    -10.69020215	      6.82415108	     49.64798437	     49.64798437	      7.84861321	    -18.99120897	     12.62437267	    -10.92168232	      3.70666914	      3.12162699	     48.70984760	    -20.66865105	     -6.20289365	     67.51717803	     45.04760207	      0.00000000	      0.00000000	    -13.30030386	    -10.75132822	     18.28038333	     27.68835260	     43.37076674	      0.00000000	      0.00000000
     49.91492857	     -3.59997826	     -4.10015601	     11.51048103	      1.17923078	      0.91661077	      0.55668963	     14.57740976	      3.98057045	    -15.82796952	     26.45918322	     26.45918322	     17.11874557	    -14.31184805	     -0.29803928	     35.69003939	    -10.01980264	      6.31181980	     44.23157405	     44.23157405	      5.86734280	    -18.66675611	     10.07633804	    -10.68109954	      3.52967350	      3.17704314	     50.89434107	    -21.15363731	     -6.07272110	     69.71486112	     45.00792844	      0.00000000	      0.00000000	    -14.50340382	    -10.96518798	     18.64105982	     28.76652712	     43.41227335	      0.00000000	      0.00000000
     49.93585714	     -4.05935163	     -3.93488476	     12.29077304	      1.17673185	      0.91861200	      0.55457321	     14.04931664	      3.62768895	    -16.70873781	     24.90009070	     24.90009070	     16.55637575	    -13.68336252	     -0.89535582	     35.08797530	     -9.34350111	      5.83785233	     38.77618513	     38.77618513	      3.71966469	    -18.05731365	      8.19205719	    -10.40651360	      3.37568720	      3.19903617	     53.03397919	    -21.54490164	     -5.87104191	     71.79822269	     44.96834751	      0.00000000	      0.00000000	    -15.54964529	    -11.11724349	     19.00234829	     29.84176508	     43.44683290	      0.00000000	      0.00000000
     49.95678571	     -4.47639641	     -3.82234129	     12.96394107	      1.17439107	      0.92051242	      0.55235612	     13.44469061	      3.38977217	    -17.47478678	     23.26658139	     23.26658139	     15.87555163	    -13.14606519	     -1.61287457	     34.37096521	     -8.76741022	      5.28348318	     33.56516842	     33.56516842	      1.51842294	    -16.99567247	      6.70892818	    -10.13940814	      3.27129018	      3.38855613	     55.12682807	    -21.97117079	     -5.62851080	     73.58661104	     44.94608282	      0.00000000	      0.00000000	    -16.40046719	    -11.26457145	     19.50659273	     31.01028227	     43.49651080	      0.00000000	      0.00000000
     49.97771429	     -4.96193410	     -3.74644887	     13.53716939	      1.17206709	      0.92204765	      0.55016151	     13.01617442	      3.21298454	    -18.00240064	     21.83224325	     21.83224325	     15.55505807	    -12.67225879	     -1.43723439	     33.93087059	     -8.26560115	      4.61026087	     29.18262694	     29.18262694	      0.26859268	    -14.97789641	      7.66649957	     -9.78901549	      3.13295103	      3.52500294	     57.29489443	    -22.07546829	     -5.60671894	     74.67091478	     44.92325521	      0.00000000	      0.00000000	    -16.76200675	    -11.10411733	     19.62163722	     31.19534936	     43.49138849	      0.00000000	      0.00000000
     49.99864286	     -5.22259807	     -3.79084811	     14.08054597	      1.17011115	      0.92342147	      0.54774586	     12.25590413	      3.16421106	    -18.93413454	     20.21725506	     20.21725506	     14.90773310	    -11.66418833	     -2.67978198	     33.37736508	     -7.95635414	      3.91312299	     25.44663570	     25.44663570	     -1.40944492	    -12.83869556	      7.11010314	     -9.70841032	      3.20533811	      3.54675113	     59.22397844	    -22.32328480	     -4.89182398	     76.78501312	     44.87313313	      0.00000000	      0.00000000	    -17.57873875	    -11.22838064	     20.11208314	     32.89140076	     43.53033557	      0.00000000	      0.00000000
     50.01957143	     -5.53872299	     -3.82666327	     14.50499747	      1.16822719	      0.92440436	      0.54535426	     11.72339202	      3.15566235	    -19.38976793	     18.92389518	     18.92389518	     14.63375668	    -11.16323122	     -2.65370864	     33.08803646	     -7.63138071	      3.26521962	     22.63889021	     22.63889021	     -2.53231631	    -10.70599268	      7.76329847	     -9.50187369	      3.19738455	      3.63256352	     61.16207262	    -22.18370537	     -4.76571274	     77.79032245	     44.85146062	      0.00000000	      0.00000000	    -17.78422451	    -11.00572220	     20.31882792	     33.09360013	     43.52626333	      0.00000000	      0.00000000
     50.04050000	     -5.79019249	     -3.98644625	     14.82537407	      1.16655668	      0.92496575	      0.54297997	     11.20064789	      3.26253437	    -19.95412188	     17.75406393	     17.75406393	     14.36241008	    -10.37491366	     -3.01212852	     32.99431203	     -7.50170754	      2.63993638	     20.75690895	     20.75690895	     -3.52567318	     -8.65444120	      7.85825695	     -9.32641776	      3.33957505	      3.72730544	     62.95826391	    -21.89843733	     -4.33908958	     78.99969966	     44.81746514	      0.00000000	      0.00000000	    -17.97099979	    -10.82579306	     20.60866935	     33.53256403	     43.52618682	      0.00000000	      0.00000000
     50.06142857	     -6.05238606	     -4.07320690	     15.07071989	      1.16507123	      0.92519184	      0.54042946	     10.84675806	      3.25765030	    -20.27487504	     16.95549836	     16.95549836	     14.25762951	     -9.94482434	     -3.22017673	     32.91230573	     -7.26777947	      2.24045873	     19.41919225	     19.41919225	     -4.36131705	     -7.21679939	      7.88541319	     -9.15040568	      3.35084808	      3.85937180	     64.50964398	    -21.63081680	     -4.04843211	     79.88406637	     44.79259288	      0.00000000	      0.00000000	    -17.94437919	    -10.57199501	     20.81716863	     33.80615088	     43.52319429	      0.00000000	      0.00000000
     50.08235714	     -6.20735515	     -4.24904354	     15.24158637	      1.16397199	      0.92514810	      0.53784448	     10.38640127	      3.37233931	    -20.65508938	     16.16863631	     16.16863631	     14.16598992	     -9.35403148	     -3.63746091	     32.85443510	     -7.19128314	      1.92288797	     18.73364286	     18.73364286	     -4.97868419	     -6.06302226	      7.21481519	     -9.05248286	      3.44674043	      3.87880090	     65.90584242	    -21.21248048	     -3.53964826	     80.88939364	     44.75966816	      0.00000000	      0.00000000	    -17.92861604	    -10.36057746	     21.12426308	     34.04319394	     43.51758520	      0.00000000	      0.00000000
     50.10328571	     -6.33365769	     -4.45685817	     15.30569830	      1.16323901	      0.92463560	      0.53512914	     10.01934567	      3.49243596	    -20.89622922	     15.62910388	     15.62910388	     13.85145885	     -9.06303029	     -5.08066928	     32.66288256	     -7.15465064	      1.85676092	     18.19714305	     18.19714305	     -6.18877487	     -5.71481995	      4.18456417	     -8.89959784	      3.57676491	      4.14827454	     67.07132701	    -21.15011976	     -2.72609583	     81.71374725	     44.76595336	      0.00000000	      0.00000000	    -17.77283360	    -10.37792523	     22.15625332	     34.39091530	     43.54609041	      0.00000000	      0.00000000
